<?xml version="1.0" encoding="UTF-8"?>
<svg version="1.1" viewBox="0 0 1600 736" width="1280" height="1280" xmlns="http://www.w3.org/2000/svg">
<path transform="translate(562 9.87)" d="m0 0c0.818-0.00205 1.64-0.00411 2.48-0.00622 2.77-0.0057 5.54-0.00421 8.31-0.00279 1.99-0.00258 3.99-0.00559 5.98-9e-3 5.5-0.0081 11-0.00986 16.5-0.0106 5.93-0.00185 11.9-0.00939 17.8-0.0161 13.6-0.0143 27.3-0.0201 40.9-0.0247 6.74-0.00233 13.5-0.00594 20.2-0.0097 23.1-0.0128 46.1-0.0236 69.2-0.027 1.45-2.22e-4 2.9-4.43e-4 4.35-6.65e-4 1.45-2.21e-4 2.9-4.41e-4 4.36-6.61e-4 2.91-4.43e-4 5.83-8.9e-4 8.74-0.00134 1.08-1.64e-4 1.08-1.64e-4 2.19-3.31e-4 23.4-0.00363 46.9-0.0196 70.3-0.0429 24.8-0.0246 49.5-0.0383 74.3-0.0395 2.72-1.71e-4 5.43-3.87e-4 8.15-6.34e-4 0.669-5.58e-5 1.34-1.12e-4 2.03-1.69e-4 10.1-0.00108 20.2-0.0104 30.3-0.024 11.5-0.0154 23-0.0205 34.5-0.0123 5.87 0.00392 11.7 0.00292 17.6-0.0111 5.37-0.0127 10.7-0.0116 16.1 5.91e-4 1.95 0.00197 3.89-0.00118 5.84-0.00984 2.64-0.011 5.27-0.00367 7.91 0.00839 0.763-0.0076 1.53-0.0152 2.31-0.023 4.47 0.0445 7.33 0.596 10.9 3.39 2.69 3 3.38 4.88 3.38 8.89 0.012 1.49 0.012 1.49 0.0243 3-0.00968 1.63-0.00968 1.63-0.0196 3.3 0.00496 1.16 0.00992 2.32 0.015 3.52 0.0108 3.24 0.00801 6.48-3.33e-4 9.72-0.00579 3.52 0.00573 7.04 0.0151 10.6 0.0139 6.17 0.0166 12.3 0.012 18.5-0.00682 9.17 0.00341 18.3 0.017 27.5 0.0249 17.3 0.0294 34.7 0.0275 52-0.00137 13.4 0.00244 26.8 0.00993 40.2 0.00105 1.92 0.0021 3.84 0.00314 5.76 5.19e-4 0.954 0.00104 1.91 0.00157 2.89 5.2e-4 0.955 0.00104 1.91 0.00158 2.89 7.86e-4 1.44 7.86e-4 1.44 0.00159 2.9 0.0146 26.9 0.0229 53.8 0.0183 80.8-1.72e-4 1.02-3.44e-4 2.03-5.21e-4 3.08-8.89e-4 5.15-0.00183 10.3-0.0028 15.4-1.91e-4 1.02-3.82e-4 2.04-5.79e-4 3.1-3.87e-4 2.07-7.77e-4 4.13-0.00117 6.2-0.00597 32.2 0.00947 64.4 0.0416 96.5 0.036 36.1 0.0554 72.3 0.0505 108-4.7e-4 3.85-8.8e-4 7.7-0.00125 11.5-1.54e-4 1.42-1.54e-4 1.42-3.1e-4 2.87-0.0012 14.3 0.0108 28.7 0.0295 43 0.0212 16.3 0.0251 32.6 0.0057 48.9-0.0104 9.12-0.00679 18.2 0.0165 27.4 0.0142 6.09 0.0103 12.2-0.00845 18.3-0.0102 3.47-0.0124 6.95 0.00732 10.4 0.017 3.74 0.00359 7.47-0.0178 11.2 0.0184 1.63 0.0184 1.63 0.0372 3.29-0.0877 7.26-0.0877 7.26-3.01 11.2-4.43 3.1-8.28 3-13.5 2.99-0.81 0.00205-1.62 0.00411-2.46 0.00622-2.74 0.00569-5.48 0.00421-8.22 0.00279-1.97 0.00258-3.95 0.0056-5.92 9e-3 -5.44 0.00809-10.9 0.00986-16.3 0.0106-5.86 0.00185-11.7 0.00939-17.6 0.0161-13.5 0.0143-27 0.0201-40.5 0.0247-6.67 0.00233-13.3 0.00594-20 0.0097-22.8 0.0128-45.6 0.0236-68.5 0.027-1.43 2.22e-4 -2.87 4.43e-4 -4.3 6.65e-4 -1.44 2.21e-4 -2.87 4.41e-4 -4.31 6.61e-4 -2.88 4.43e-4 -5.76 8.9e-4 -8.64 0.00134-1.07 1.64e-4 -1.07 1.64e-4 -2.16 3.31e-4 -23.2 0.00363-46.3 0.0196-69.5 0.0429-24.5 0.0246-49 0.0383-73.5 0.0395-2.69 1.71e-4 -5.37 3.87e-4 -8.06 6.34e-4 -0.662 5.58e-5 -1.32 1.12e-4 -2.01 1.69e-4 -10 0.00108-20 0.0105-30 0.024-11.4 0.0154-22.7 0.0205-34.1 0.0123-5.8-0.00392-11.6-0.00293-17.4 0.0111-5.31 0.0127-10.6 0.0116-15.9-5.91e-4 -1.92-0.00197-3.85 0.00117-5.77 0.00984-2.61 0.011-5.22 0.00365-7.83-0.00839-0.752 0.0076-1.5 0.0152-2.28 0.023-4.7-0.0471-7.94-0.893-11.9-3.39-1.38-2.19-1.38-2.19-2-4h-2c-1.76-7.29-2.29-14.2-2.25-21.6-0.00291-1.14-0.00581-2.27-0.00881-3.44-0.0073-3.81-3.59e-4 -7.61 0.00652-11.4-0.0012-2.76-0.0054-5.52-0.00945-8.27-0.00721-5.99-0.00701-12-0.00191-18 0.00757-8.91 0.00369-17.8-0.00242-26.7-0.0105-15.9-0.00962-31.8-0.00384-47.8 0.00503-13.9 0.00634-27.9 0.00395-41.8-1.53e-4 -0.924-3.06e-4 -1.85-4.63e-4 -2.8-6.23e-4 -3.75-0.00126-7.5-0.00192-11.3-0.00612-35.2-5.71e-4 -70.4 0.0102-106 0.00949-31.3 0.00864-62.5-9.22e-4 -93.8-0.0107-35.1-0.015-70.3-0.00878-105 6.41e-4 -3.74 0.00127-7.49 0.00189-11.2 1.58e-4 -0.922 3.16e-4 -1.84 4.79e-4 -2.79 0.00228-13.9-3.86e-4 -27.8-0.00544-41.8-0.00572-15.8-0.0043-31.7 0.00656-47.5 0.00588-8.86 0.00625-17.7-0.00129-26.6-0.00448-5.92-0.0017-11.8 0.00701-17.8 0.00476-3.37 0.00528-6.74-8.12e-4 -10.1-0.00606-3.63 1.37e-4 -7.27 0.00944-10.9-0.00468-1.05-0.00936-2.09-0.0142-3.17 0.0312-6.07 0.577-11.5 2.27-17.3 0.66-0.33 1.32-0.66 2-1 0.33-0.99 0.66-1.98 1-3 3.1-1.55 6.38-1.14 9.79-1.13zm-13.8 679 1 3z" fill="#FBFCFE"/>
<path transform="translate(1102 9.63)" d="m0 0c0.793-0.00397 1.59-0.00795 2.4-0.012 2.65-0.00962 5.31 0.00219 7.96 0.014 1.9-0.00243 3.81-0.00615 5.71-0.0111 5.17-0.00941 10.3 1.62e-5 15.5 0.0133 5.41 0.0113 10.8 0.00721 16.2 0.00525 9.08-8.83e-4 18.2 0.0102 27.2 0.0286 10.5 0.0212 21 0.0247 31.5 0.0184 10.1-0.00569 20.2-4.8e-5 30.3 0.0112 4.3 0.00465 8.6 0.00552 12.9 0.00341 5.06-0.00188 10.1 0.00622 15.2 0.0221 1.86 0.00424 3.72 0.00509 5.58 0.00231 2.54-0.00322 5.07 0.00586 7.61 0.0181 0.737-0.00378 1.47-0.00756 2.23-0.0115 3.99 0.0341 7.23 0.221 10.7 2.27 6.53 8.46 4.14 22.5 4.13 32.7 0.00134 1.55 0.0031 3.1 0.00524 4.66 0.0045 4.22 0.0027 8.43-4.12e-4 12.6-0.00191 3.59-2.93e-4 7.19 0.00134 10.8 0.00436 9.66 0.00145 19.3-5e-3 29-0.00466 7.04-0.00705 14.1-0.00825 21.1-0.0144 70.4-0.385 141-1.12 211 0.714-0.00222 1.43-0.00444 2.16-0.00673 6.81-0.0202 13.6-0.0354 20.4-0.0451 3.5-0.00517 7-0.0121 10.5-0.0236 28.3-0.0909 28.3-0.0909 40.6 0.957 3.56 0.128 6.81-0.278 10.3-0.881 0.93-2.79 1.13-4.46 1.13-7.34 0.00315-0.875 0.0063-1.75 0.00955-2.65-0.00202-0.944-0.00405-1.89-0.00613-2.86 9.57e-4 -0.976 0.00191-1.95 0.0029-2.96 6.81e-4 -2.07-0.00117-4.13-0.00534-6.2-0.00532-3.14-6.68e-5 -6.29 0.00635-9.43-6.61e-4 -2.01-0.00194-4.02-0.00391-6.03 0.00304-1.4 0.00304-1.4 0.00613-2.83-0.00315-0.891-0.0063-1.78-0.00955-2.7-7.96e-4 -0.773-0.00159-1.55-0.00241-2.34-0.0928-2.8-0.0928-2.8-0.627-6.15-0.638-5.03-0.642-10-0.634-15.1-0.00227-1.04-0.00453-2.09-0.00687-3.16-0.00631-3.48-0.00551-6.97-0.00469-10.4-0.00299-2.5-0.0064-5-0.0102-7.51-0.00791-6.08-0.0111-12.2-0.0116-18.2-4.76e-4 -4.94-0.00253-9.89-0.0057-14.8-0.0088-14-0.0134-28.1-0.0127-42.1 5.99e-5 -1.13 5.99e-5 -1.13 1.21e-4 -2.29 4.09e-5 -0.756 8.18e-5 -1.51 1.24e-4 -2.29 4.07e-4 -12.3-0.00917-24.5-0.0233-36.8-0.0144-12.6-0.0213-25.2-0.0204-37.8 3.32e-4 -7.07-0.00241-14.1-0.0132-21.2-0.0101-6.65-0.00977-13.3-0.00248-19.9 0.00105-2.44-0.00133-4.88-0.00736-7.32-0.0077-3.33-0.00309-6.66 0.00463-9.99-0.00514-0.966-0.0103-1.93-0.0156-2.93 0.0331-6.47 0.73-11.6 3.76-17.4 6.85-5.82 21-3.27 29.7-3.25 1.72-0.00136 3.45-0.00314 5.17-0.00531 4.66-0.00454 9.31-0.0028 14 3.79e-4 4.88 0.00254 9.77 1.81e-4 14.7-0.00139 8.2-0.00182 16.4 5.7e-4 24.6 0.00534 9.47 0.00545 18.9 0.00367 28.4-0.00183 8.14-0.00454 16.3-0.00518 24.4-0.00256 4.86 0.00156 9.72 0.00177 14.6-0.00154 4.56-0.00289 9.13-8.76e-4 13.7 0.00489 1.67 0.00132 3.35 9.47e-4 5.02-0.00126 2.29-0.00274 4.57 7.08e-4 6.86 0.00568 1.28 3.77e-4 2.56 7.54e-4 3.87 0.00114 9.58 0.337 9.58 0.337 13 3 3.15 4.12 2.75 8.27 2.71 13.2-0.00379 1.25-0.00379 1.25-0.00765 2.53-0.00975 2.81-0.0268 5.61-0.0438 8.42-0.0085 2.01-0.0166 4.01-0.0242 6.02-0.0222 5.46-0.0509 10.9-0.081 16.4-0.0306 5.71-0.0563 11.4-0.0827 17.1-0.0452 9.6-0.0947 19.2-0.147 28.8-0.0599 11.1-0.113 22.2-0.162 33.3-0.0474 10.7-0.1 21.3-0.155 32-0.0233 4.54-0.0447 9.08-0.0645 13.6-0.0235 5.35-0.0518 10.7-0.0837 16.1-0.0109 1.96-0.0202 3.92-0.0278 5.89-0.0106 2.68-0.0271 5.37-0.0451 8.05-0.00166 0.772-0.00332 1.54-0.00503 2.34-0.0348 4.16-0.369 8.15-0.935 12.3-0.438 4.08-0.362 8.17-0.352 12.3-0.00234 1.5-0.00234 1.5-0.00473 3.02-0.00398 3.33-8.34e-4 6.65 0.00232 9.98-0.00136 2.39-0.00314 4.78-0.00531 7.17-0.00408 5.81-0.00349 11.6-5.87e-4 17.4 0.00226 4.72 0.00256 9.45 0.00148 14.2-1.53e-4 0.674-3.06e-4 1.35-4.64e-4 2.04-3.2e-4 1.37-6.44e-4 2.74-9.73e-4 4.11-0.00285 12.8 4.23e-4 25.6 0.0058 38.5 0.00447 11 0.00369 22-9.19e-4 33-0.00536 12.8-0.00745 25.5-0.00439 38.3 3.19e-4 1.36 6.33e-4 2.73 9.43e-4 4.09 1.54e-4 0.671 3.09e-4 1.34 4.68e-4 2.03 8.62e-4 4.72-5.9e-4 9.43-0.00295 14.1-0.00289 6.35-8.78e-4 12.7 0.00489 19.1 0.00132 2.33 9.46e-4 4.66-0.00126 6.99-0.00274 3.18 7.05e-4 6.37 0.00568 9.55-0.00335 1.38-0.00335 1.38-0.00676 2.78 0.0146 4.82 0.317 9.49 0.905 14.3 0.404 3.95 0.382 7.89 0.387 11.9 0.00494 0.926 0.00988 1.85 0.015 2.81 0.0153 3.08 0.0237 6.16 0.0321 9.24 0.00959 2.22 0.0196 4.44 0.03 6.65 0.027 6.01 0.048 12 0.068 18 0.0219 6.28 0.0493 12.6 0.0761 18.8 0.0442 10.5 0.085 21.1 0.123 31.6 0.0394 10.9 0.0808 21.7 0.125 32.6 0.00272 0.67 0.00545 1.34 0.00826 2.03 0.0137 3.36 0.0274 6.72 0.0411 10.1 0.114 27.8 0.221 55.7 0.323 83.5-33.5 0.0686-66.9 0.121-100 0.153-3.95 0.00375-7.9 0.00764-11.8 0.0116-0.786 7.87e-4 -1.57 0.00157-2.38 0.00238-12.7 0.0131-25.5 0.0367-38.2 0.0643-13.1 0.028-26.1 0.0447-39.2 0.0508-8.07 0.00412-16.1 0.0172-24.2 0.0415-6.18 0.0177-12.4 0.0196-18.5 0.0156-2.54 8.29e-4 -5.08 0.00685-7.62 0.0183-3.45 0.0148-6.91 0.0114-10.4 0.00315-1.02 0.00874-2.03 0.0175-3.08 0.0265-1.38-0.00896-1.38-0.00896-2.79-0.0181-0.798 0.00114-1.6 0.00228-2.42 0.00345-0.638-0.123-1.28-0.246-1.93-0.373-2.39-3.59-2.22-5.06-2.14-9.31 0.0303-1.95 0.0303-1.95 0.0611-3.94 0.0323-1.42 0.0648-2.84 0.0976-4.26 0.0262-1.45 0.0514-2.91 0.0758-4.36 0.0666-3.82 0.146-7.64 0.227-11.5 0.081-3.9 0.15-7.8 0.221-11.7 0.14-7.65 0.292-15.3 0.453-23h1v-57c-6.49-0.00935-13-0.0187-19.7-0.0283-21.4-0.0338-42.9-0.0891-64.3-0.156-13-0.0398-26-0.0722-39-0.0871-11.3-0.013-22.7-0.04-34-0.0836-6-0.0226-12-0.0383-18-0.0373-5.65 7.46e-4 -11.3-0.0172-16.9-0.0493-2.07-0.0085-4.14-0.0103-6.21-0.00463-22.8 0.0535-22.8 0.0535-30.3-6.74l-1.56-2.25c-0.804-1.11-0.804-1.11-1.62-2.25-7.59-12.8-5.67-30.9-5.65-45.2-0.00446-2.19-0.00978-4.37-0.0159-6.56-0.0141-5.97-0.0158-11.9-0.0154-17.9-0.00166-6.45-0.0147-12.9-0.0262-19.4-0.0221-13.4-0.0302-26.7-0.035-40.1-2.61e-4 -0.724-5.22e-4 -1.45-7.91e-4 -2.19-2.6e-4 -0.726-5.21e-4 -1.45-7.89e-4 -2.2-0.00309-8.06-0.0096-16.1-0.0162-24.2-0.0196-24.4-0.036-48.7-0.0389-73.1-9.41e-5 -0.778-1.88e-4 -1.56-2.85e-4 -2.36-3.78e-4 -3.15-7.42e-4 -6.3-0.0011-9.45-2.72e-4 -2.37-5.48e-4 -4.74-8.25e-4 -7.12-8.8e-5 -0.784-1.76e-4 -1.57-2.67e-4 -2.37-0.00291-24.7-0.025-49.3-0.0613-74-0.0407-27.7-0.0644-55.4-0.0647-83.2-9.68e-5 -2.95-2.64e-4 -5.91-4.8e-4 -8.86-4.41e-5 -0.727-8.82e-5 -1.45-1.34e-4 -2.2-0.00112-11.7-0.0185-23.4-0.0417-35.1-0.0228-11.8-0.0267-23.5-0.0125-35.3 0.00719-6.37 0.00623-12.7-0.0164-19.1-0.0205-5.83-0.0181-11.7 0.00287-17.5 0.00351-2.11-0.00147-4.22-0.0157-6.33-0.0181-2.87-0.00542-5.73 0.0149-8.59-0.0126-0.822-0.0251-1.64-0.0381-2.49 0.0916-6.01 1.9-10 5.66-14.7 3.99-3.4 7.89-3.42 12.9-3.37zm280 7.37 1 2zm-297 4 1 3z" fill="#FBFCFE"/>
<path transform="translate(31.7 9.87)" d="m0 0c1.18-0.00234 1.18-0.00234 2.38-0.00473 2.63-0.00399 5.26-8.27e-4 7.89 0.00232 1.88-0.00135 3.77-0.00314 5.65-0.00531 5.12-0.00456 10.2-0.00279 15.4 3.79e-4 5.35 0.00253 10.7 1.85e-4 16.1-0.00139 8.99-0.00182 18 5.81e-4 27 0.00534 10.4 0.00544 20.8 0.00368 31.2-0.00183 8.93-0.00454 17.9-0.00518 26.8-0.00256 5.33 0.00156 10.7 0.00177 16-0.00154 5.01-0.00289 10-8.87e-4 15 0.00489 1.84 0.00132 3.68 9.41e-4 5.52-0.00126 2.51-0.00273 5.02 6.92e-4 7.53 0.00568 0.73-0.00223 1.46-0.00446 2.21-0.00676 7.18 0.0277 7.18 0.0277 10.7 1.13 2.29 3.44 2.66 6.29 3.11 10.3 0.0843 0.713 0.169 1.43 0.255 2.16 0.777 7.04 0.91 14 0.878 21.1 0.00106 1.38 0.00298 2.76 0.00568 4.15 0.00476 3.74-0.00288 7.48-0.013 11.2-0.00882 4.04-0.0063 8.07-0.00544 12.1-2.73e-4 7.84-0.0118 15.7-0.0276 23.5-0.0125 6.35-0.0204 12.7-0.0253 19-0.0588 73.1-0.523 146-1.18 219 0.655-0.00222 1.31-0.00444 1.98-0.00673 6.93-0.0224 13.9-0.0373 20.8-0.0482 2.57-0.00497 5.15-0.0118 7.72-0.0205 14.1-0.0468 28.2 0.041 42.3 0.859 3.76 0.214 7.48 0.256 11.2 0.217 0.81-7.8 1.11-15.5 1.12-23.4 0.00451-0.824 0.00902-1.65 0.0137-2.5-0.0112-4.82-0.243-9.56-0.638-14.4-0.832-11.5-0.649-23.1-0.646-34.6-3e-3 -2.59-0.0064-5.19-0.0102-7.78-0.00825-6.28-0.0111-12.6-0.0116-18.8-4.77e-4 -5.1-0.00254-10.2-0.0057-15.3-0.00879-14.5-0.0134-29-0.0127-43.5 5.99e-5 -1.17 5.99e-5 -1.17 1.21e-4 -2.36 4.09e-5 -0.779 8.18e-5 -1.56 1.24e-4 -2.36 4.07e-4 -12.7-0.00919-25.3-0.0233-38-0.0144-13-0.0213-26.1-0.0204-39.1 3.32e-4 -7.3-0.00241-14.6-0.0132-21.9-0.01-6.86-0.00978-13.7-0.00248-20.6 0.00105-2.52-0.00133-5.04-0.00736-7.55-0.00769-3.43-0.0031-6.86 0.00463-10.3-0.00514-1-0.0103-2-0.0156-3.03 0.0309-6.2 0.806-10.9 3.76-16.4 6.76-5.92 21-3.33 29.7-3.32 1.72-0.00136 3.45-0.00314 5.17-0.00531 4.66-0.00454 9.31-0.0028 14 3.79e-4 4.88 0.00254 9.77 1.81e-4 14.7-0.00139 8.2-0.00182 16.4 5.7e-4 24.6 0.00534 9.47 0.00545 18.9 0.00367 28.4-0.00183 8.14-0.00454 16.3-0.00518 24.4-0.00256 4.86 0.00156 9.72 0.00177 14.6-0.00154 4.56-0.00289 9.13-8.76e-4 13.7 0.00489 1.67 0.00132 3.35 9.47e-4 5.02-0.00126 2.29-0.00274 4.57 7.08e-4 6.86 0.00568 1.28 3.77e-4 2.56 7.54e-4 3.87 0.00114 3.62 0.127 7.03 0.42 10.6 1.13 1.44 2.06 1.44 2.06 2 4h2c1.39 2.79 1.13 5.06 1.13 8.18 0.00227 0.641 0.00453 1.28 0.00687 1.94 0.00636 2.16 0.00551 4.32 0.00469 6.48 0.00299 1.55 0.00639 3.1 0.0102 4.64 0.00888 4.23 0.0112 8.47 0.0118 12.7 7.13e-4 2.67 0.00285 5.35 0.0055 8.02 0.0093 9.41 0.0133 18.8 0.0125 28.2-5.89e-4 8.61 0.00971 17.2 0.0257 25.8 0.0134 7.49 0.0184 15 0.0178 22.5-2.47e-4 4.43 0.00214 8.85 0.0132 13.3 0.0481 20.8-0.339 41.5-1.1 62.2-1.13 30.6-1.41 61.1-1.34 91.7 0.0115 6.17 0.0133 12.3 0.0153 18.5 0.0043 12.2 0.0174 24.3 0.0366 36.5 0.0186 11.8 0.0326 23.5 0.041 35.3 5.25e-4 0.734 0.00105 1.47 0.00159 2.22 0.00261 3.68 0.00514 7.37 0.00762 11.1 0.0205 30.2 0.0557 60.4 0.101 90.7h3c-0.0709 0.995-0.142 1.99-0.215 3.02-0.763 11.3-0.922 22.6-0.899 34 3.07e-4 1.97 1.71e-4 3.95-3.65e-4 5.92-2.24e-4 5.23 0.00553 10.5 0.0126 15.7 0.00574 4.93 0.00597 9.86 0.00668 14.8 0.00522 14.4 0.0192 28.8 0.0321 43.1 0.0206 32.2 0.0412 64.3 0.0625 97.4h-263c-1.89-4.73-2.27-8.01-2.19-12.9 9.67e-4 -1.04 9.67e-4 -1.04 0.00195-2.09 0.0252-2.96 0.15-5.78 0.69-8.69 0.593-3.93 0.62-7.78 0.593-11.7-0.00146-0.827-0.00292-1.65-0.00443-2.51-0.00379-1.79-0.00989-3.57-0.0181-5.36-0.0128-2.82-0.0193-5.65-0.0241-8.47-0.0114-5.99-0.0307-12-0.051-18-0.0236-6.95-0.044-13.9-0.0559-20.9-0.0065-2.79-0.019-5.57-0.0317-8.36-0.00363-1.7-0.00698-3.4-0.01-5.1-0.00517-0.778-0.0103-1.56-0.0157-2.36-5.32e-4 -5.35-5.32e-4 -5.35 1.11-7.58 0.0703-1.87 0.0843-3.75 0.0625-5.62-0.00902-1-0.018-2.01-0.0273-3.04-0.0116-0.771-0.0232-1.54-0.0352-2.34-1.1-0.00147-2.21-0.00293-3.35-0.00444-26.9-0.0366-53.8-0.0961-80.6-0.179-13-0.0398-26-0.0722-39-0.0871-11.3-0.013-22.7-0.04-34-0.0836-6-0.0226-12-0.0383-18-0.0373-5.65 7.46e-4 -11.3-0.0172-16.9-0.0493-2.07-0.0085-4.14-0.0103-6.21-0.00463-23.6 0.0555-23.6 0.0555-31.8-7.93-8.78-11.7-7.7-26.8-7.63-40.6-0.00461-2.22-0.011-4.44-0.0189-6.65-0.0166-6.07-0.00847-12.1 0.00394-18.2 0.00814-5.88-0.00255-11.8-0.0126-17.6-0.021-12.8-0.0193-25.5-0.00768-38.3 0.0101-11.2 0.0127-22.3 0.00791-33.5-3.06e-4 -0.741-6.11e-4 -1.48-9.26e-4 -2.25-0.00125-3.01-0.00252-6.02-0.00384-9.03-0.0122-28.2-0.00116-56.4 0.0204-84.6 0.019-25 0.0173-50.1-0.00184-75.1-0.0214-28.2-0.0299-56.3-0.0176-84.5 0.00128-3 0.00253-6 0.00377-9 3.16e-4 -0.739 6.33e-4 -1.48 9.59e-4 -2.24 0.00455-11.2-7.71e-4 -22.3-0.0109-33.5-0.0114-12.7-0.0086-25.4 0.0131-38 0.0105-6.47 0.0146-12.9 0.0014-19.4-0.0119-5.92-0.00541-11.8 0.0159-17.8 0.00448-2.15 0.00217-4.29-0.0075-6.44-0.0121-2.91 2.68e-4 -5.82 0.0189-8.73-0.00936-0.838-0.0187-1.68-0.0284-2.54 0.0728-5.68 1.3-8.96 4.53-13.7 4.67-4.38 9.61-4.15 15.7-4.13zm278 7.13 1 2zm-297 4 1 2zm236 576v70h1v-70h-1z" fill="#FBFCFE"/>
<path transform="translate(548,22)" d="m0 0h2v672h-2c-1.2-2.39-1.13-3.86-1.13-6.53-0.0025-0.962-0.00501-1.92-0.00759-2.91 0.00234-1.07 0.00468-2.13 0.00709-3.23-0.00145-1.13-0.00291-2.26-0.0044-3.42-0.00304-3.16-0.00155-6.32 0.00178-9.48 0.00252-3.43-7.18e-4 -6.85-0.00324-10.3-0.00362-6.01-0.0035-12-9.53e-4 -18 0.00377-8.94 0.00185-17.9-0.00121-26.8-0.00528-16-0.00481-31.9-0.00192-47.9 0.00251-14 0.00317-28 0.00198-41.9-7.64e-5 -0.926-1.53e-4 -1.85-2.31e-4 -2.81-3.11e-4 -3.76-6.3e-4 -7.51-9.6e-4 -11.3-0.00306-35.3-2.81e-4 -70.5 0.0051-106 0.00475-31.4 0.00432-62.7-4.61e-4 -94.1-0.00535-35.2-0.00748-70.4-0.00439-106 3.21e-4 -3.75 6.34e-4 -7.5 9.43e-4 -11.3 7.91e-5 -0.924 1.58e-4 -1.85 2.4e-4 -2.8 0.00114-14-1.96e-4 -27.9-0.00272-41.9-0.00285-15.9-0.00216-31.8 0.00328-47.6 0.00295-8.9 0.00311-17.8-6.46e-4 -26.7-0.00223-5.93-8.66e-4 -11.9 0.0035-17.8 0.00239-3.39 0.00316-6.77-4.06e-4 -10.2-3e-3 -3.64 4.07e-5 -7.27 0.00472-10.9-0.00234-1.07-0.00468-2.13-0.00709-3.23 0.0025-0.962 0.00501-1.92 0.00759-2.91 6.78e-5 -0.833 1.36e-4 -1.67 2.05e-4 -2.52 0.125-2.01 0.125-2.01 1.13-4.01zm0 667 1 3z" fill="#FAFBFC"/>
<path transform="translate(1086,18)" d="m0 0h2c0.0482 49.9-0.0784 99.7-0.194 150-0.0285 12.4-0.0562 24.7-0.084 37.1-0.0494 22-0.0994 44-0.15 66-0.0488 21.3-0.0973 42.7-0.146 64-0.00224 0.993-0.00224 0.993-0.00453 2.01-0.0165 7.31-0.033 14.6-0.0495 21.9-0.124 54.8-0.248 110-0.373 164-0.33-0.66-0.66-1.32-1-2h-2c-0.0342-47.6-0.0661-95.3-0.0847-143-2.76e-4 -0.704-5.52e-4 -1.41-8.37e-4 -2.13-0.00599-15.3-0.0115-30.6-0.0166-45.9-0.00249-7.51-0.00509-15-0.00773-22.5-2.62e-4 -0.747-5.23e-4 -1.49-7.92e-4 -2.26-0.00853-24.2-0.0236-48.5-0.0419-72.7-0.0189-24.9-0.0312-49.8-0.0352-74.7-5.76e-4 -3.51-0.00123-7.03-0.00192-10.5-1.35e-4 -0.691-2.7e-4 -1.38-4.09e-4 -2.1-0.00237-11.1-0.0117-22.3-0.0235-33.4-0.0118-11.2-0.0161-22.4-0.0133-33.6 0.00129-6.07-7.44e-4 -12.1-0.0114-18.2-0.00968-5.55-0.0103-11.1-0.00339-16.6 8.5e-4 -2.01-0.00173-4.03-0.00797-6.04-0.00795-2.72-0.00375-5.45 0.00367-8.17-0.00525-0.794-0.0105-1.59-0.0159-2.41 0.0236-3.8 0.102-5.53 2.26-8.77zm-1 3 1 3z" fill="#FAFBFC"/>
<path transform="translate(14,18)" d="m0 0h2c-0.33 179-0.66 357-1 541h-2c-1.65-3.3-1.14-6.98-1.13-10.6-0.00175-0.906-0.00351-1.81-0.00531-2.75-0.00469-3.07-0.00219-6.14 2.34e-4 -9.21-0.00187-2.21-0.00417-4.42-0.00687-6.63-0.00615-6.1-0.00598-12.2-0.00481-18.3 1.82e-4 -5.9-0.0043-11.8-0.00861-17.7-0.00969-13.6-0.0125-27.1-0.0131-40.7-4.59e-4 -10.5-0.00251-20.9-0.0057-31.4-8.97e-4 -3.01-0.00179-6.02-0.00267-9.03-2.21e-4 -0.748-4.42e-4 -1.5-6.7e-4 -2.27-0.00616-21-0.0101-42.1-0.00966-63.1 1.56e-5 -0.794 3.12e-5 -1.59 4.72e-5 -2.41 8.31e-5 -4.02 1.82e-4 -8.05 2.85e-4 -12.1 1.99e-5 -0.799 3.99e-5 -1.6 6.04e-5 -2.42 4.04e-5 -1.62 8.22e-5 -3.23 1.25e-4 -4.85 6.13e-4 -25.2-0.0069-50.3-0.0206-75.5-0.0153-28.2-0.024-56.5-0.023-84.7 7.46e-5 -3.01 1.23e-4 -6.02 1.54e-4 -9.03 1.17e-5 -0.741 2.33e-5 -1.48 3.53e-5 -2.25 3.08e-5 -11.9-0.00637-23.9-0.015-35.8-0.00846-12-0.00948-24-0.00289-36 0.00328-6.5 0.00327-13-0.00535-19.5-0.0078-5.95-0.0065-11.9 0.00228-17.8 0.00155-2.16-3.32e-4 -4.32-0.00586-6.48-0.00698-2.92-0.00183-5.84 0.00656-8.76-0.00497-0.851-0.00994-1.7-0.0151-2.58 0.0239-3.9 0.0481-5.83 2.26-9.15zm-1 3 1 2z" fill="#FAFBFC"/>
<path transform="translate(308,22)" d="m0 0h3c0.0229 33.7 0.0405 67.3 0.0511 101 0.00125 3.98 0.00254 7.96 0.00387 11.9 3.93e-4 1.19 3.93e-4 1.19 7.95e-4 2.4 0.00435 12.8 0.0122 25.6 0.0214 38.4 0.00937 13.2 0.0149 26.3 0.0169 39.5 0.00137 8.11 0.00568 16.2 0.0138 24.3 0.00593 6.23 0.00653 12.5 0.00519 18.7 2.74e-4 2.55 0.00225 5.09 0.0061 7.64 0.0355 24.7 0.0355 24.7-1.12 35.1h-1c-1.24-13.6-1.13-27.3-1.11-40.9 2.82e-4 -2.6 1.23e-4 -5.21-4.43e-4 -7.81-5.21e-4 -5.58 0.00258-11.2 0.00824-16.7 0.00817-8.06 0.0107-16.1 0.012-24.2 0.00218-13.1 0.00882-26.2 0.0183-39.3 0.0092-12.7 0.0163-25.4 0.0205-38.1 2.63e-4 -0.785 5.25e-4 -1.57 7.96e-4 -2.38 0.00131-3.94 0.00257-7.87 0.00381-11.8 0.0103-32.6 0.0279-65.2 0.0503-97.8z" fill="#F5F6F7"/>
<path transform="translate(1383,187)" d="m0 0c0.0232 12 0.0409 24 0.0518 36.1 0.00522 5.58 0.0123 11.2 0.0236 16.7 0.0109 5.39 0.0168 10.8 0.0194 16.2 0.00185 2.05 0.00545 4.11 0.0109 6.16 0.00727 2.88 0.00826 5.76 0.0078 8.64 0.0036 0.848 0.00719 1.7 0.0109 2.57-0.00753 4.33-0.257 8.38-1.12 12.6h-1c-0.83-5.77-1.14-11.3-1.11-17.2-1.46e-4 -0.879-2.92e-4 -1.76-4.43e-4 -2.66 6.91e-4 -2.88 0.00845-5.76 0.0163-8.64 0.00187-2.01 0.00329-4.01 0.00429-6.02 0.0038-5.26 0.0136-10.5 0.0247-15.8 0.0103-5.38 0.0148-10.8 0.0198-16.1 0.0107-10.5 0.0278-21.1 0.0488-31.6 2-1 2-1 3-1z" fill="#F4F5F6"/>
<path transform="translate(249,595)" d="m0 0h2c0.89 29.4 1.01 58.6 0 88-0.99-0.33-1.98-0.66-3-1-0.0231-11-0.0409-22.1-0.0518-33.1-0.00523-5.13-0.0123-10.3-0.0236-15.4-0.0108-4.95-0.0168-9.89-0.0194-14.8-0.00185-1.89-0.00547-3.78-0.0109-5.67-0.00722-2.64-0.00826-5.28-0.0078-7.92-0.0036-0.788-0.00719-1.58-0.0109-2.39 0.0104-5.41 0.0104-5.41 1.12-7.64zm0 2v70h1v-70h-1z" fill="#FAFBFC"/>
<path transform="translate(1584,495)" d="m0 0h1v197h-1v-197z"/>
<path transform="translate(1322,597)" d="m0 0c0.66 0.33 1.32 0.66 2 1 0.103 21.7 0.13 43.5-0.263 65.2-0.0327 1.9-0.0602 3.79-0.0827 5.69-0.0329 2.65-0.0848 5.3-0.142 7.94-0.00639 0.786-0.0128 1.57-0.0194 2.38-0.122 4.45-0.196 5.48-3.49 8.77v-47h1c0.33-14.5 0.66-29 1-44z" fill="#FAFBFC"/>
<path transform="translate(1384,16)" d="m0 0c1 3 1 3 0 6-0.115 1.7-0.176 3.41-0.205 5.11-0.0199 1.04-0.0399 2.08-0.0604 3.15-0.0167 1.12-0.0334 2.24-0.0506 3.4-0.0208 1.15-0.0416 2.3-0.063 3.48-0.0655 3.68-0.124 7.36-0.183 11-0.0432 2.49-0.0868 4.98-0.131 7.47-0.107 6.11-0.209 12.2-0.307 18.3-0.99-0.33-1.98-0.66-3-1-0.0254-7.01-0.0429-14-0.0549-21-0.00502-2.38-0.0118-4.77-0.0205-7.15-0.0122-3.43-0.0178-6.86-0.0222-10.3-0.00516-1.06-0.0103-2.13-0.0156-3.22-3.68e-4 -4.88 0.0741-9.51 1.11-14.3 0.99-0.33 1.98-0.66 3-1z" fill="#FAFBFC"/>
<path transform="translate(1584,45)" d="m0 0h1v167h-1v-167z"/>
<path transform="translate(1176,10)" d="m0 0h34c0.495 1.48 0.495 1.48 1 3h-36c0.33-0.99 0.66-1.98 1-3z" fill="#FAFBFC"/>
<path transform="translate(104,10)" d="m0 0h34c0.495 1.48 0.495 1.48 1 3h-36c0.33-0.99 0.66-1.98 1-3z" fill="#FAFBFC"/>
<path transform="translate(1384,290)" d="m0 0v32c-0.99-0.33-1.98-0.66-3-1v-30c2-1 2-1 3-1z" fill="#FAFBFC"/>
<path transform="translate(1320,641)" d="m0 0h1c0.33 8.25 0.66 16.5 1 25h1c0.0871 3.1 0.14 6.21 0.188 9.31 0.0251 0.881 0.0503 1.76 0.0762 2.67 0.00967 0.848 0.0193 1.7 0.0293 2.57 0.0157 0.78 0.0314 1.56 0.0476 2.36-0.341 2.08-0.341 2.08-3.34 5.08v-47z" fill="#EEEFF0"/>
<path transform="translate(1383,127)" d="m0 0v29c-0.99-0.33-1.98-0.66-3-1v-27c2-1 2-1 3-1z" fill="#FAFBFC"/>
<path transform="translate(1086,524)" d="m0 0h1c0.0291 4.37 0.0468 8.75 0.0625 13.1 0.00838 1.24 0.0168 2.48 0.0254 3.75 0.00322 1.2 0.00645 2.4 0.00977 3.63 0.00524 1.1 0.0105 2.2 0.0159 3.33-0.113 3.14-0.527 6.08-1.11 9.16h-1c-1.02-6.7-1.12-13.2-1.06-20 0.00677-1.59 0.00677-1.59 0.0137-3.21 0.0117-2.6 0.0281-5.19 0.0488-7.79h2v-2z" fill="#E7E8E9"/>
<path transform="translate(1352,335)" d="m0 0h27c-1 2-1 2-4 4-3.11 0.233-5.01-0.00471-8-1-2.74-0.0705-5.45-0.0936-8.19-0.0625-1.12 0.00677-1.12 0.00677-2.27 0.0137-1.85 0.0118-3.69 0.0297-5.54 0.0488 0.33-0.99 0.66-1.98 1-3z" fill="#C1C2C3"/>
<path transform="translate(278,335)" d="m0 0h29c-0.33 0.66-0.66 1.32-1 2-9.26 2.05-19.6 1.09-29 1 0.33-0.99 0.66-1.98 1-3z" fill="#B5B5B6"/>
<path transform="translate(225,96)" d="m0 0h1v65h-1v-65z"/>
<path transform="translate(409,10)" d="m0 0h20c0.33 0.99 0.66 1.98 1 3h-22c0.33-0.99 0.66-1.98 1-3z" fill="#FAFBFC"/>
<path transform="translate(1486,10)" d="m0 0h19c0.33 0.99 0.66 1.98 1 3h-21c0.33-0.99 0.66-1.98 1-3z" fill="#FAFBFC"/>
<path transform="translate(225,334)" d="m0 0c6.6 0.33 13.2 0.66 20 1 0.33 0.99 0.66 1.98 1 3h-19c-0.66-1.32-1.32-2.64-2-4z" fill="#ECEDEE"/>
<path transform="translate(1582,231)" d="m0 0h1v57h-1v-57z"/>
<path transform="translate(248,683)" d="m0 0c2.1 3.15 2.24 3.86 2.2 7.45-0.00645 0.848-0.0129 1.7-0.0195 2.57-0.0168 0.881-0.0335 1.76-0.0508 2.67-0.00902 0.893-0.018 1.79-0.0273 2.71-0.0236 2.2-0.0565 4.4-0.0977 6.61-0.99-0.33-1.98-0.66-3-1-0.0271-2.56-0.0469-5.12-0.0625-7.69-0.00838-0.721-0.0168-1.44-0.0254-2.19-0.0175-3.84 0.153-7.39 1.09-11.1z" fill="#ECEDEE"/>
<path transform="translate(1320,688)" d="m0 0h2v21c-3-3-3-3-3.33-6.72 0.0106-1.45 0.0372-2.89 0.0781-4.34 0.00516-0.733 0.0103-1.47 0.0156-2.22 0.0794-5.41 0.0794-5.41 1.23-7.72z" fill="#FAFBFC"/>
<path transform="translate(1582,424)" d="m0 0h1v51h-1v-51z"/>
<path transform="translate(225,193)" d="m0 0h1v46h-1v-46z"/>
<path transform="translate(312,307)" d="m0 0v16c-0.99-0.33-1.98-0.66-3-1v-14c2-1 2-1 3-1z" fill="#FAFBFC"/>
<path transform="translate(1320,597)" d="m0 0h1v42h-1v-42z" fill="#FAFBFC"/>
<path transform="translate(1299,335)" d="m0 0h14c0.33 0.99 0.66 1.98 1 3h-14c-0.33-0.99-0.66-1.98-1-3z" fill="#EDEEEF"/>
<path transform="translate(1383,78)" d="m0 0v14c-0.99-0.33-1.98-0.66-3-1v-12c2-1 2-1 3-1z" fill="#FAFBFC"/>
<path transform="translate(1297,207)" d="m0 0h1v32h-1v-32z"/>
<path transform="translate(510,244)" d="m0 0h1v30h-1v-30z"/>
<path transform="translate(512,184)" d="m0 0h1v28h-1v-28z"/>
<path transform="translate(512,512)" d="m0 0h1v26h-1v-26z"/>
<path transform="translate(213,10)" d="m0 0c2.64 0.33 5.28 0.66 8 1 0.66 1.65 1.32 3.3 2 5-1.05-0.464-1.05-0.464-2.12-0.938-2.96-1.1-5.75-1.63-8.88-2.06 0.33-0.99 0.66-1.98 1-3z" fill="#FAFBFC"/>
<path transform="translate(11,207)" d="m0 0h1v25h-1v-25z" fill="#FAFBFC"/>
<path transform="translate(11,240)" d="m0 0h1v20h-1v-20z" fill="#FAFBFC"/>
<path transform="translate(11,300)" d="m0 0h1v19h-1v-19z" fill="#FAFBFC"/>
<path transform="translate(11,454)" d="m0 0h1v17h-1v-17z" fill="#FAFBFC"/>
<path transform="translate(510,440)" d="m0 0h1v17h-1v-17z"/>
<path transform="translate(11,322)" d="m0 0h1v17h-1v-17z" fill="#FAFBFC"/>
<path transform="translate(11,473)" d="m0 0h1v16h-1v-16z" fill="#FAFBFC"/>
<path transform="translate(11,495)" d="m0 0h1v14h-1v-14z" fill="#FAFBFC"/>
<path transform="translate(11,174)" d="m0 0h1v14h-1v-14z" fill="#FAFBFC"/>
<path transform="translate(11,95)" d="m0 0h1v14h-1v-14z" fill="#FAFBFC"/>
<path transform="translate(11,60)" d="m0 0h1v14h-1v-14z" fill="#FAFBFC"/>
<path transform="translate(11,117)" d="m0 0h1v13h-1v-13z" fill="#FAFBFC"/>
<path transform="translate(225,77)" d="m0 0h1v13h-1v-13z"/>
<path transform="translate(11,411)" d="m0 0h1v12h-1v-12z" fill="#FAFBFC"/>
<path transform="translate(11,397)" d="m0 0h1v12h-1v-12z" fill="#FAFBFC"/>
<path transform="translate(11,286)" d="m0 0h1v11h-1v-11z" fill="#FAFBFC"/>
<path transform="translate(11,533)" d="m0 0h1v10h-1v-10z" fill="#FAFBFC"/>
<path transform="translate(11,354)" d="m0 0h1v10h-1v-10z" fill="#FAFBFC"/>
<path transform="translate(11,432)" d="m0 0h1v9h-1v-9z" fill="#FAFBFC"/>
<path transform="translate(11,343)" d="m0 0h1v8h-1v-8z" fill="#FAFBFC"/>
<path transform="translate(11,85)" d="m0 0h1v8h-1v-8z" fill="#FAFBFC"/>
<path transform="translate(11,140)" d="m0 0h1v7h-1v-7z" fill="#FAFBFC"/>
<path transform="translate(11,378)" d="m0 0h1v6h-1v-6z" fill="#FAFBFC"/>
<path transform="translate(11,366)" d="m0 0h1v6h-1v-6z" fill="#FAFBFC"/>
<path transform="translate(11,272)" d="m0 0h1v6h-1v-6z" fill="#FAFBFC"/>
<path transform="translate(11,199)" d="m0 0h1v6h-1v-6z" fill="#FAFBFC"/>
<path transform="translate(11,154)" d="m0 0h1v6h-1v-6z" fill="#FAFBFC"/>
<path transform="translate(11,190)" d="m0 0h1v5h-1v-5z" fill="#FAFBFC"/>
<path transform="translate(11,166)" d="m0 0h1v5h-1v-5z" fill="#FAFBFC"/>
<path transform="translate(11,43)" d="m0 0h1v5h-1v-5z" fill="#FAFBFC"/>
<path transform="translate(11,36)" d="m0 0h1v5h-1v-5z" fill="#FAFBFC"/>
<path transform="translate(11,446)" d="m0 0 1 4z" fill="#FAFBFC"/>
<path transform="translate(11,389)" d="m0 0 1 4z" fill="#FAFBFC"/>
<path transform="translate(11,50)" d="m0 0 1 4z" fill="#FAFBFC"/>
</svg>
